<svg fill="none" height="25" viewBox="0 0 25 25" width="25" xmlns="http://www.w3.org/2000/svg"><g fill="#fff"><path clip-rule="evenodd" d="m6.08109 12.5c0-3.54509 2.87382-6.41892 6.41891-6.41892 3.5451 0 6.4189 2.87383 6.4189 6.41892 0 3.5451-2.8738 6.4189-6.4189 6.4189-3.54509 0-6.41891-2.8738-6.41891-6.4189zm6.41891 4.1667c-2.3012 0-4.16667-1.8655-4.16667-4.1667s1.86547-4.16667 4.16667-4.16667 4.1667 1.86547 4.1667 4.16667-1.8655 4.1667-4.1667 4.1667z" fill-rule="evenodd"/><path clip-rule="evenodd" d="m6.08109 12.5c0-3.54509 2.87382-6.41892 6.41891-6.41892 3.5451 0 6.4189 2.87383 6.4189 6.41892 0 3.5451-2.8738 6.4189-6.4189 6.4189-3.54509 0-6.41891-2.8738-6.41891-6.4189zm6.41891 4.1667c-2.3012 0-4.16667-1.8655-4.16667-4.1667s1.86547-4.16667 4.16667-4.16667 4.1667 1.86547 4.1667 4.16667-1.8655 4.1667-4.1667 4.1667z" fill-rule="evenodd"/><path d="m19.1725 7.32746c.8285 0 1.5-.67154 1.5-1.49998 0-.82843-.6715-1.50002-1.5-1.50002-.8284 0-1.5.67159-1.5 1.50002 0 .82844.6716 1.49998 1.5 1.49998z"/><path d="m19.1725 7.32746c.8285 0 1.5-.67154 1.5-1.49998 0-.82843-.6715-1.50002-1.5-1.50002-.8284 0-1.5.67159-1.5 1.50002 0 .82844.6716 1.49998 1.5 1.49998z"/><g clip-rule="evenodd" fill-rule="evenodd"><path d="m12.5 0c-3.3948 0-3.82048.0143895-5.15373.0752221-1.33048.0606839-2.23915.2720109-3.03424.5810369-.82199.319396-1.51909.746811-2.21405 1.441721-.69491.69496-1.122325 1.39206-1.441721 2.21405-.309026.79509-.520353 1.70376-.5810369 3.03424-.0608326 1.33325-.0752221 1.75893-.0752221 5.15373s.0143895 3.8205.0752221 5.1537c.0606839 1.3305.2720109 2.2392.5810369 3.0343.319396.822.746811 1.5191 1.441721 2.214.69496.6949 1.39206 1.1223 2.21405 1.4418.79509.309 1.70376.5203 3.03424.581 1.33325.0608 1.75893.0752 5.15373.0752s3.8205-.0144 5.1537-.0752c1.3305-.0607 2.2392-.272 3.0343-.581.822-.3195 1.5191-.7469 2.214-1.4418s1.1223-1.392 1.4418-2.214c.309-.7951.5203-1.7038.581-3.0343.0608-1.3332.0752-1.7589.0752-5.1537s-.0144-3.82048-.0752-5.15373c-.0607-1.33048-.272-2.23915-.581-3.03424-.3195-.82199-.7469-1.51909-1.4418-2.21405-.6949-.69491-1.392-1.122325-2.214-1.441721-.7951-.309026-1.7038-.520353-3.0343-.5810369-1.3332-.0608326-1.7589-.0752221-5.1537-.0752221zm0 2.25225c3.3376 0 3.733.01275 5.0511.07289 1.2187.05557 1.8806.25921 2.321.43039.5835.22676.9999.49763 1.4373.93507.4374.43739.7083.85379.9351 1.43726.1712.44046.3748 1.10233.4304 2.32107.0601 1.31807.0729 1.71343.0729 5.05107 0 3.3376-.0128 3.733-.0729 5.0511-.0556 1.2187-.2592 1.8806-.4304 2.321-.2268.5835-.4977.9999-.9351 1.4373s-.8538.7083-1.4373.9351c-.4404.1712-1.1023.3748-2.321.4304-1.3179.0601-1.7132.0729-5.0511.0729-3.33788 0-3.73314-.0128-5.05107-.0729-1.21874-.0556-1.8806-.2592-2.32107-.4304-.58347-.2268-.99987-.4977-1.43726-.9351s-.70831-.8538-.93507-1.4373c-.17118-.4404-.37482-1.1023-.43039-2.321-.06014-1.3181-.07289-1.7135-.07289-5.0511 0-3.33764.01275-3.733.07289-5.05107.05557-1.21874.25921-1.88061.43039-2.32107.22676-.58347.49763-.99987.93507-1.43726.43739-.43744.85379-.70831 1.43726-.93507.44047-.17118 1.10233-.37482 2.32107-.43039 1.31807-.06014 1.71344-.07289 5.05107-.07289z"/><path d="m12.5 0c-3.3948 0-3.82048.0143895-5.15373.0752221-1.33048.0606839-2.23915.2720109-3.03424.5810369-.82199.319396-1.51909.746811-2.21405 1.441721-.69491.69496-1.122325 1.39206-1.441721 2.21405-.309026.79509-.520353 1.70376-.5810369 3.03424-.0608326 1.33325-.0752221 1.75893-.0752221 5.15373s.0143895 3.8205.0752221 5.1537c.0606839 1.3305.2720109 2.2392.5810369 3.0343.319396.822.746811 1.5191 1.441721 2.214.69496.6949 1.39206 1.1223 2.21405 1.4418.79509.309 1.70376.5203 3.03424.581 1.33325.0608 1.75893.0752 5.15373.0752s3.8205-.0144 5.1537-.0752c1.3305-.0607 2.2392-.272 3.0343-.581.822-.3195 1.5191-.7469 2.214-1.4418s1.1223-1.392 1.4418-2.214c.309-.7951.5203-1.7038.581-3.0343.0608-1.3332.0752-1.7589.0752-5.1537s-.0144-3.82048-.0752-5.15373c-.0607-1.33048-.272-2.23915-.581-3.03424-.3195-.82199-.7469-1.51909-1.4418-2.21405-.6949-.69491-1.392-1.122325-2.214-1.441721-.7951-.309026-1.7038-.520353-3.0343-.5810369-1.3332-.0608326-1.7589-.0752221-5.1537-.0752221zm0 2.25225c3.3376 0 3.733.01275 5.0511.07289 1.2187.05557 1.8806.25921 2.321.43039.5835.22676.9999.49763 1.4373.93507.4374.43739.7083.85379.9351 1.43726.1712.44046.3748 1.10233.4304 2.32107.0601 1.31807.0729 1.71343.0729 5.05107 0 3.3376-.0128 3.733-.0729 5.0511-.0556 1.2187-.2592 1.8806-.4304 2.321-.2268.5835-.4977.9999-.9351 1.4373s-.8538.7083-1.4373.9351c-.4404.1712-1.1023.3748-2.321.4304-1.3179.0601-1.7132.0729-5.0511.0729-3.33788 0-3.73314-.0128-5.05107-.0729-1.21874-.0556-1.8806-.2592-2.32107-.4304-.58347-.2268-.99987-.4977-1.43726-.9351s-.70831-.8538-.93507-1.4373c-.17118-.4404-.37482-1.1023-.43039-2.321-.06014-1.3181-.07289-1.7135-.07289-5.0511 0-3.33764.01275-3.733.07289-5.05107.05557-1.21874.25921-1.88061.43039-2.32107.22676-.58347.49763-.99987.93507-1.43726.43739-.43744.85379-.70831 1.43726-.93507.44047-.17118 1.10233-.37482 2.32107-.43039 1.31807-.06014 1.71344-.07289 5.05107-.07289z"/></g></g></svg>