<svg fill="none" height="25" viewBox="0 0 25 25" width="25" xmlns="http://www.w3.org/2000/svg"><path clip-rule="evenodd" d="m1.84478.00186414h21.30312v-.00170575c1.0088-.01314299 1.8377.79332061 1.8521 1.80215161v21.39349c-.014 1.0093-.8428 1.8166-1.8521 1.8041h-21.30312c-1.007319.0105-1.8329129-.7968-1.84478-1.8041v-21.39195c.0122878-1.006839.837949-1.81334818 1.84478-1.80198586zm1.56734 5.59001586c.00021 1.18722.9628 2.14948 2.14999 2.14927.57011-.0001 1.11683-.22668 1.51989-.62989.40305-.40321.62943-.95003.62933-1.52015-.00022-1.18722-.9628-2.14948-2.14999-2.14926-1.1872.00021-2.14943.96281-2.14922 2.15003zm14.18488 15.70972h3.7042l.0015-6.5443c0-3.2127-.6922-5.68222-4.4466-5.68222-1.4352-.05328-2.7835.68721-3.5086 1.92702h-.0497v-1.63029h-3.5561v11.92939h3.7042v-5.9014c0-1.5562.2952-3.0634 2.2245-3.0634 1.9019 0 1.9266 1.7808 1.9266 3.1641zm-10.18278 0h-3.70808v-11.92979h3.70808z" fill="#fff" fill-rule="evenodd"/></svg>