<?xml version="1.0" encoding="utf-8"?>
<!-- Generator: Adobe Illustrator 26.3.1, SVG Export Plug-In . SVG Version: 6.00 Build 0)  -->
<svg version="1.1" id="Ebene_1" xmlns="http://www.w3.org/2000/svg" xmlns:xlink="http://www.w3.org/1999/xlink" x="0px" y="0px"
	 viewBox="0 0 25 25" style="enable-background:new 0 0 25 25;" xml:space="preserve">
<style type="text/css">
	.st0{fill-rule:evenodd;clip-rule:evenodd;}
</style>
<path class="st0" d="M1.8,0h21.3v0c1,0,1.8,0.8,1.9,1.8v21.4c0,1-0.8,1.8-1.9,1.8H1.8c-1,0-1.8-0.8-1.8-1.8V1.8C0,0.8,0.8,0,1.8,0z
	 M3.4,5.6c0,1.2,1,2.1,2.1,2.1c0.6,0,1.1-0.2,1.5-0.6c0.4-0.4,0.6-1,0.6-1.5c0-1.2-1-2.1-2.1-2.1C4.4,3.4,3.4,4.4,3.4,5.6z
	 M17.6,21.3h3.7l0-6.5c0-3.2-0.7-5.7-4.4-5.7C15.4,9,14.1,9.8,13.3,11h0V9.4H9.7v11.9h3.7v-5.9c0-1.6,0.3-3.1,2.2-3.1
	c1.9,0,1.9,1.8,1.9,3.2V21.3z M7.4,21.3H3.7V9.4h3.7V21.3z"/>
</svg>
