<svg width="368" height="424" xmlns="http://www.w3.org/2000/svg" xmlns:xlink="http://www.w3.org/1999/xlink" xml:space="preserve" overflow="hidden"><defs><clipPath id="clip0"><rect x="456" y="148" width="368" height="424"/></clipPath><clipPath id="clip1"><rect x="456" y="149" width="368" height="422"/></clipPath><clipPath id="clip2"><rect x="456" y="149" width="368" height="422"/></clipPath><clipPath id="clip3"><rect x="456" y="149" width="368" height="422"/></clipPath><radialGradient cx="662.55" cy="555.3" r="158.96" fx="540.415" fy="453.56" gradientUnits="userSpaceOnUse" spreadMethod="pad" id="fill4" gradientTransform="matrix(-0.997636 0 0 0.997636 951.545 -343.187)"><stop offset="0" stop-color="#FF0096" stop-opacity="1"/><stop offset="0.5" stop-color="#960096" stop-opacity="1"/><stop offset="1" stop-color="#FF0096" stop-opacity="1"/></radialGradient><radialGradient cx="76.75" cy="555.3" r="158.96" fx="-45.3876" fy="453.562" gradientUnits="userSpaceOnUse" spreadMethod="pad" id="fill5" gradientTransform="matrix(0.997636 0 0 0.997636 0 -343.187)"><stop offset="0" stop-color="#FF0096" stop-opacity="1"/><stop offset="0.5" stop-color="#960096" stop-opacity="1"/><stop offset="1" stop-color="#FF0096" stop-opacity="1"/></radialGradient><radialGradient cx="184" cy="555.3" r="160.32" fx="342.716" gradientUnits="userSpaceOnUse" spreadMethod="pad" id="fill6" gradientTransform="matrix(0.997636 0 0 0.997636 0 -343.187)"><stop offset="0" stop-color="#FF0096" stop-opacity="1"/><stop offset="0.5" stop-color="#960096" stop-opacity="1"/><stop offset="1" stop-color="#FF0096" stop-opacity="1"/></radialGradient></defs><g clip-path="url(#clip0)" transform="translate(-456 -148)"><g clip-path="url(#clip1)"><g clip-path="url(#clip2)"><g clip-path="url(#clip3)"><path d="M242.525 0 213.993 0 213.993 309.666 293.006 421.601 367.13 421.601 242.525 309.666 242.525 0Z" fill="url(#fill4)" fill-rule="nonzero" transform="matrix(1.00237 0 0 1 456 149.2)"/><path d="M124.605 0 153.137 0 153.137 309.666 74.1244 421.601 0 421.601 124.605 309.666 124.605 0Z" fill="url(#fill5)" fill-rule="nonzero" transform="matrix(1.00237 0 0 1 456 149.2)"/><path d="M169.299 309.666 101.559 421.601 265.571 421.601 197.831 309.666 197.831 0 169.299 0 169.299 309.666Z" fill="url(#fill6)" fill-rule="nonzero" transform="matrix(1.00237 0 0 1 456 149.2)"/><path d="M132.137 234.444 121.063 308.968 110.987 308.968 102.806 260.583 102.607 260.583 94.526 308.968 84.5496 308.968 73.4759 234.444 84.7991 234.444 90.0865 281.732 90.2861 281.732 98.6662 234.444 106.847 234.444 115.526 282.83 115.726 282.83 120.814 234.345 132.187 234.444Z" fill="#FFFFFF" fill-rule="nonzero" fill-opacity="1" transform="matrix(1.00237 0 0 1 456 149.2)"/><path d="M138.821 308.868 138.821 234.444 149.496 234.444 149.496 266.369 162.665 266.369 162.665 234.444 173.339 234.444 173.339 308.968 162.665 308.968 162.665 275.846 149.496 275.846 149.496 308.968 138.821 308.968Z" fill="#FFFFFF" fill-rule="nonzero" fill-opacity="1" transform="matrix(1.00237 0 0 1 456 149.2)"/><path d="M183.415 308.868 183.415 234.444 215.24 234.444 215.24 244.421 194.09 244.421 194.09 266.369 212.496 266.369 212.496 276.345 194.14 276.345 194.14 298.193 215.29 298.193 215.29 308.868Z" fill="#FFFFFF" fill-rule="nonzero" fill-opacity="1" transform="matrix(1.00237 0 0 1 456 149.2)"/><path d="M222.124 308.868 222.124 234.444 253.848 234.444 253.848 244.421 232.699 244.421 232.699 266.369 251.055 266.369 251.055 276.345 232.699 276.345 232.699 298.193 253.848 298.193 253.848 308.868Z" fill="#FFFFFF" fill-rule="nonzero" fill-opacity="1" transform="matrix(1.00237 0 0 1 456 149.2)"/><path d="M260.832 308.868 260.832 234.444 271.507 234.444 271.507 298.293 292.657 298.293 292.657 308.968 260.832 308.968Z" fill="#FFFFFF" fill-rule="nonzero" fill-opacity="1" transform="matrix(1.00237 0 0 1 456 149.2)"/><path d="M146.952 83.2028 136.277 83.2028 136.277 80.8085C136.324 78.5945 135.735 76.4134 134.581 74.5234 133.484 72.8274 131.488 71.8298 128.795 71.8298 127.55 71.7876 126.314 72.0622 125.203 72.6279 124.356 73.1941 123.613 73.9029 123.009 74.7229 122.432 75.6759 122.027 76.7227 121.811 77.8156 121.613 79.0025 121.513 80.2037 121.512 81.4071 121.515 82.6402 121.581 83.8723 121.712 85.0984 121.81 86.0058 122.082 86.8861 122.51 87.6922 122.94 88.4917 123.555 89.1761 124.305 89.6875 125.336 90.3742 126.44 90.9431 127.598 91.3835L135.778 94.5759C137.863 95.3272 139.817 96.4048 141.565 97.7683 142.992 98.922 144.179 100.346 145.056 101.958 145.868 103.764 146.407 105.681 146.652 107.645 146.952 110.06 147.084 112.493 147.052 114.928 147.07 117.878 146.769 120.822 146.154 123.707 145.65 126.186 144.63 128.531 143.161 130.591 141.655 132.59 139.664 134.169 137.374 135.18 134.637 136.363 131.677 136.941 128.695 136.876 126.233 136.885 123.792 136.41 121.512 135.479 119.352 134.609 117.386 133.321 115.726 131.688 112.374 128.368 110.503 123.836 110.538 119.118L110.538 115.127 121.213 115.127 121.213 118.519C121.205 120.417 121.799 122.267 122.909 123.807 124.106 125.403 126.001 126.201 128.695 126.201 130.135 126.257 131.567 125.984 132.885 125.403 133.887 124.884 134.718 124.087 135.279 123.108 135.878 122.038 136.219 120.842 136.277 119.617 136.377 118.32 136.477 116.723 136.477 115.027 136.477 113.032 136.377 111.436 136.277 110.239 136.217 109.197 135.946 108.179 135.479 107.246 135.006 106.473 134.356 105.823 133.583 105.35 132.551 104.758 131.484 104.225 130.391 103.754L122.709 100.562C118.12 98.6662 115.027 96.1721 113.431 93.0794 111.716 89.4345 110.895 85.433 111.037 81.4071 111.029 78.7014 111.432 76.0103 112.234 73.426 112.929 71.0433 114.12 68.8338 115.726 66.9414 117.22 65.0873 119.136 63.6166 121.313 62.6515 123.853 61.5205 126.614 60.9749 129.393 61.0553 131.9 61.0201 134.386 61.5307 136.676 62.5518 138.791 63.4947 140.718 64.8129 142.363 66.4426 145.415 69.4817 147.137 73.6078 147.151 77.9154L146.952 83.2028Z" fill="#FFFFFF" fill-rule="nonzero" fill-opacity="1" transform="matrix(1.00237 0 0 1 456 149.2)"/><path d="M154.933 136.177 154.933 61.7537 170.895 61.7537C173.538 61.7143 176.169 62.119 178.677 62.9508 181.013 63.7885 183.104 65.1941 184.762 67.0411 186.575 68.9874 187.878 71.3524 188.553 73.9248 189.356 77.3907 189.724 80.9429 189.651 84.4998 189.691 87.3382 189.49 90.175 189.052 92.9797 188.671 95.2884 187.822 97.495 186.558 99.4643 185.118 101.836 183.091 103.794 180.672 105.151 177.715 106.666 174.415 107.389 171.095 107.246L165.707 107.246 165.707 136.377 154.933 136.177ZM165.608 71.73 165.608 97.07 170.696 97.07C172.405 97.1578 174.112 96.8506 175.684 96.1721 176.822 95.6327 177.738 94.7163 178.278 93.5783 178.9 92.3733 179.24 91.0431 179.275 89.6875 179.375 88.191 179.475 86.495 179.475 84.5995 179.475 82.704 179.475 81.2076 179.375 79.6114 179.311 78.2068 179.007 76.8235 178.477 75.521 177.948 74.3841 177.076 73.442 175.983 72.8274 174.483 72.1463 172.839 71.8383 171.194 71.9296L165.608 71.73Z" fill="#FFFFFF" fill-rule="nonzero" fill-opacity="1" transform="matrix(1.00237 0 0 1 456 149.2)"/><path d="M197.831 136.177 197.831 61.7537 208.506 61.7537 208.506 136.277 197.831 136.177Z" fill="#FFFFFF" fill-rule="nonzero" fill-opacity="1" transform="matrix(1.00237 0 0 1 456 149.2)"/><path d="M218.482 136.177 218.482 61.7537 228.658 61.7537 244.72 106.647 244.92 106.647 244.92 61.7537 255.594 61.7537 255.594 136.277 245.618 136.277 229.257 91.4832 229.057 91.4832 229.057 136.277 218.482 136.177Z" fill="#FFFFFF" fill-rule="nonzero" fill-opacity="1" transform="matrix(1.00237 0 0 1 456 149.2)"/><path d="M137.225 222.872 137.225 158.425 124.854 158.425 124.854 148.348 160.17 148.348 160.17 158.425 147.8 158.425 147.8 222.872Z" fill="#FFFFFF" fill-rule="nonzero" fill-opacity="1" transform="matrix(1.00237 0 0 1 456 149.2)"/><path d="M164.959 222.872 164.959 148.348 175.634 148.348 175.634 180.273 188.803 180.273 188.803 148.348 199.527 148.348 199.527 222.872 188.852 222.872 188.852 189.75 175.684 189.75 175.684 222.872Z" fill="#FFFFFF" fill-rule="nonzero" fill-opacity="1" transform="matrix(1.00237 0 0 1 456 149.2)"/><path d="M209.504 222.872 209.504 148.348 241.328 148.348 241.328 158.425 220.178 158.425 220.178 180.273 238.535 180.273 238.535 190.349 220.178 190.349 220.178 212.197 241.328 212.197 241.328 222.872Z" fill="#FFFFFF" fill-rule="nonzero" fill-opacity="1" transform="matrix(1.00237 0 0 1 456 149.2)"/></g></g></g></g></svg>