<?xml version="1.0" encoding="UTF-8"?><svg id="uuid-5b764f2e-8199-4813-8834-db8488a36afb" xmlns="http://www.w3.org/2000/svg" viewBox="0 0 2131.93 826.71"><defs><style>.uuid-917e5b5a-08d6-4388-8787-8462a7b4140b{fill:#9affc1;}</style></defs><path class="uuid-917e5b5a-08d6-4388-8787-8462a7b4140b" d="M1989.87,546.69l15.62-109.88h-118.8l-15.62,109.88h118.81Zm1.12-134.98l61.35-265.49h-130.52l-13.39,265.49h82.55Zm-219.2-159.52l-22.87,160.07c-2.23,15.25-7.16,26.86-14.78,34.86-7.62,8-17.38,11.99-29.28,11.99-11.16,0-19.34-3.53-24.54-10.6-5.21-7.07-6.88-17.1-5.02-30.12l23.42-166.21h-106.53l-26.21,188.52c-4.46,33.84,1.21,60.98,17.01,81.43,15.8,20.45,39.14,30.67,70,30.67,15.99,0,31.23-2.88,45.73-8.65,14.5-5.76,26.21-13.66,35.14-23.7l-3.34,26.21h105.97l41.27-294.5h-105.97Zm-438.96,294.5l22.87-160.08c2.23-15.25,7.16-26.96,14.78-35.14,7.62-8.18,17.38-12.27,29.28-12.27,11.16,0,19.34,3.53,24.54,10.59,5.21,7.07,6.88,17.11,5.02,30.12l-23.42,166.77h105.97l26.77-189.08c4.46-33.84-1.3-60.98-17.29-81.43-15.99-20.45-39.23-30.68-69.72-30.68-15.99,0-31.14,2.88-45.45,8.65-14.32,5.76-26.12,13.85-35.42,24.27l18.41-132.19h-105.98l-56.34,400.47h105.97Zm-290.03-68.6c-9.67,0-17.11-1.77-22.31-5.3-5.21-3.53-7.81-8.65-7.81-15.34,0-7.81,3.16-14.04,9.48-18.69,6.32-4.65,15.62-7.72,27.89-9.2l42.95-5.02-2.23,16.73c-1.49,11.53-6.6,20.54-15.34,27.05-8.74,6.5-19.61,9.76-32.63,9.76m169-8.37c-7.81,.74-13.2-.1-16.17-2.51-2.97-2.42-3.91-6.41-2.79-11.99l13.95-102.07c4.46-32.72-4.65-58.84-27.33-78.37-22.68-19.52-55.22-29.28-97.61-29.28-37.55,0-69.16,8.27-94.82,24.82-25.66,16.55-43.32,39.51-52.99,68.89l98.72,16.17c3.34-9.67,8.09-16.73,14.22-21.2,6.13-4.46,14.22-6.69,24.26-6.69,11.53,.37,19.99,3.07,25.38,8.09,5.39,5.02,7.35,11.99,5.86,20.92l-.56,5.02-65.26,7.25c-40.53,3.72-71.95,14.32-94.26,31.79-22.31,17.47-33.47,40.34-33.47,68.6,0,24.91,9.11,44.99,27.33,60.24,18.22,15.25,42.02,22.87,71.39,22.87,16.73,0,32.16-2.6,46.29-7.81,14.13-5.21,26.21-12.83,36.25-22.87,8.92,13.01,23.42,21.84,43.51,26.49,20.08,4.65,42.58,3.99,67.49-1.95l10.6-76.41Zm-583.42-64.7l-17.29-152.82h-100.95l41.27,294.5h90.35l64.14-140,17.85,140h89.24l138.88-294.5h-103.18l-68.6,152.82-12.27-152.82h-74.74l-64.7,152.82Z"/><path class="uuid-917e5b5a-08d6-4388-8787-8462a7b4140b" d="M1446.13,671.35c1.21-1.33,2.62-2.38,4.23-3.13,1.61-.76,3.23-1.14,4.86-1.14,3.46,0,6.09,1.12,7.9,3.36,1.82,2.24,2.73,5.42,2.73,9.54v29.8h6v-28.89c0-1.82,.31-3.55,.91-5.18,.6-1.64,1.51-3.09,2.72-4.36,1.21-1.33,2.62-2.38,4.22-3.13,1.61-.76,3.23-1.14,4.86-1.14,3.45,0,6.09,1.12,7.9,3.36,1.82,2.24,2.73,5.42,2.73,9.54v29.8h6v-31.16c0-5.21-1.38-9.37-4.14-12.49-2.76-3.12-6.49-4.68-11.22-4.68-3.27,0-6.3,.85-9.08,2.54-2.79,1.7-4.91,3.94-6.36,6.72-1.09-2.97-2.8-5.25-5.13-6.86-2.33-1.61-5.13-2.41-8.4-2.41-3.03,0-5.8,.76-8.31,2.27-2.51,1.51-4.53,3.6-6.04,6.27v-7.63h-6v47.42h6v-28.89c0-1.82,.3-3.55,.91-5.18,.61-1.64,1.51-3.09,2.72-4.36m-47.33-4.72c4.61,0,8.3,1.77,11.08,5.31,2.79,3.54,4.18,8.25,4.18,14.13s-1.39,10.59-4.18,14.13c-2.79,3.54-6.48,5.31-11.08,5.31s-8.3-1.77-11.08-5.31c-2.79-3.54-4.18-8.25-4.18-14.13s1.39-10.58,4.18-14.13c2.79-3.54,6.48-5.31,11.08-5.31m15.9,2.27c-1.88-2.42-4.18-4.27-6.9-5.54-2.73-1.27-5.73-1.91-9-1.91s-6.25,.63-8.95,1.91c-2.69,1.27-5.01,3.12-6.95,5.54-1.76,2.18-3.09,4.74-4,7.67-.91,2.94-1.36,6.1-1.36,9.49s.45,6.56,1.36,9.49c.91,2.94,2.24,5.5,4,7.68,1.94,2.42,4.25,4.27,6.95,5.54,2.69,1.27,5.68,1.91,8.95,1.91s6.27-.63,9-1.91c2.73-1.27,5.03-3.12,6.9-5.54,1.82-2.18,3.18-4.74,4.09-7.68,.91-2.94,1.36-6.1,1.36-9.49s-.45-6.55-1.36-9.49c-.91-2.94-2.27-5.5-4.09-7.67m-59.32,19.26c0,2.42-.3,4.65-.91,6.68-.61,2.03-1.51,3.8-2.73,5.32-1.39,1.69-3.06,3-5,3.91-1.94,.91-3.97,1.36-6.08,1.36-4.67,0-8.39-1.77-11.18-5.31-2.79-3.54-4.18-8.22-4.18-14.04s1.39-10.48,4.18-13.99c2.79-3.51,6.51-5.27,11.18-5.27,2.12,0,4.16,.47,6.13,1.41,1.97,.94,3.62,2.25,4.95,3.95,1.21,1.51,2.12,3.28,2.73,5.31,.6,2.03,.91,4.28,.91,6.77v3.91Zm-15.72,22.53c3.45,0,6.56-.83,9.31-2.5,2.76-1.66,4.86-3.95,6.31-6.86v8.45h5.99v-65.23h-5.99v26.26c-1.46-2.91-3.56-5.19-6.31-6.86-2.76-1.66-5.86-2.5-9.31-2.5-3.15,0-6.04,.65-8.68,1.95-2.63,1.3-4.86,3.23-6.68,5.77-1.64,2.18-2.88,4.72-3.73,7.63-.84,2.91-1.27,6-1.27,9.26s.42,6.36,1.27,9.27c.85,2.91,2.09,5.45,3.73,7.63,1.82,2.54,4.04,4.46,6.68,5.77,2.64,1.3,5.53,1.95,8.68,1.95m-52.78-43.97c4.06,0,7.27,1.36,9.63,4.09,2.36,2.73,3.6,6.39,3.72,10.99h-28.53c.67-4.66,2.36-8.34,5.09-11.04,2.73-2.69,6.09-4.04,10.09-4.04m.27,43.97c4.66,0,8.65-1.21,11.95-3.63,3.3-2.42,5.59-5.81,6.86-10.17l-5.45-1.73c-.73,3.21-2.27,5.73-4.63,7.54-2.36,1.82-5.27,2.73-8.72,2.73-4.66,0-8.43-1.72-11.31-5.17-2.88-3.46-4.35-8.03-4.41-13.72h34.89v-2c0-7.02-1.73-12.63-5.18-16.81-3.45-4.18-8.21-6.27-14.26-6.27-3.21,0-6.16,.63-8.86,1.91-2.69,1.27-5.01,3.15-6.95,5.63-1.76,2.18-3.09,4.72-4,7.63-.91,2.91-1.36,6.06-1.36,9.45,0,7.33,1.97,13.27,5.9,17.81,3.94,4.54,9.11,6.81,15.53,6.81m-53.87-43.97c4.06,0,7.27,1.36,9.63,4.09,2.36,2.73,3.6,6.39,3.73,10.99h-28.53c.67-4.66,2.36-8.34,5.09-11.04,2.73-2.69,6.09-4.04,10.09-4.04m.27,43.97c4.66,0,8.65-1.21,11.95-3.63,3.3-2.42,5.59-5.81,6.86-10.17l-5.45-1.73c-.73,3.21-2.27,5.73-4.63,7.54-2.36,1.82-5.27,2.73-8.72,2.73-4.66,0-8.44-1.72-11.31-5.17-2.88-3.46-4.35-8.03-4.41-13.72h34.89v-2c0-7.02-1.73-12.63-5.18-16.81-3.46-4.18-8.21-6.27-14.26-6.27-3.21,0-6.16,.63-8.86,1.91-2.69,1.27-5.01,3.15-6.95,5.63-1.76,2.18-3.09,4.72-4,7.63-.91,2.91-1.36,6.06-1.36,9.45,0,7.33,1.97,13.27,5.9,17.81,3.94,4.54,9.12,6.81,15.54,6.81m-34.52-48.78c-3.03,0-5.69,.83-7.99,2.5-2.3,1.67-4.06,3.98-5.27,6.95v-9h-6v47.42h6v-26.62c0-4.36,1.24-8,3.73-10.9,2.48-2.9,5.51-4.36,9.08-4.36,.79,0,1.48,.03,2.09,.09,.61,.06,1.21,.15,1.82,.27v-5.99c-.49-.12-1.03-.21-1.64-.28-.61-.06-1.21-.09-1.82-.09m-64.95,17.44h29.52v-5.54h-29.52v-23.71h34.8v-5.54h-41.15v65.23h6.36v-30.43Zm-80.85,30.43v-28.71c0-1.94,.33-3.74,1-5.4,.67-1.67,1.64-3.16,2.91-4.5,1.27-1.27,2.76-2.27,4.45-3,1.7-.73,3.42-1.09,5.18-1.09,3.57,0,6.31,1.12,8.22,3.36,1.91,2.24,2.86,5.42,2.86,9.54v29.8h6v-31.16c0-5.33-1.38-9.52-4.14-12.58-2.76-3.06-6.59-4.59-11.49-4.59-3.21,0-6.12,.76-8.72,2.27-2.6,1.51-4.69,3.6-6.27,6.27v-25.44h-6v65.23h6Zm-28.25,.45c1.27,0,2.45-.06,3.54-.18,1.09-.12,2.21-.33,3.36-.64v-5.27c-.97,.24-1.91,.42-2.82,.54-.91,.12-1.88,.18-2.9,.18-2.61,0-4.42-.53-5.45-1.59-1.03-1.06-1.55-2.8-1.55-5.22v-30.53h11.45v-5.18h-11.45v-13.72h-5.9v13.72h-7.9v5.18h7.9v31.44c0,3.88,.92,6.72,2.77,8.54,1.85,1.82,4.83,2.73,8.95,2.73m-39.06-.45h6v-47.42h-6v47.42Zm6.54-65.23h-6.99v8.09h6.99v-8.09Zm-64.68,56.24l-11.26-38.43h-6.18l14.54,47.42h5.27l10.99-38.43,10.81,38.43h5.27l14.53-47.42h-6l-11.18,38.52-10.81-38.52h-5.18l-10.81,38.43Zm-61.5-12.63c0,2.42-.31,4.65-.91,6.68-.61,2.03-1.51,3.8-2.73,5.32-1.4,1.69-3.06,3-5,3.91-1.94,.91-3.97,1.36-6.08,1.36-4.66,0-8.39-1.77-11.18-5.31-2.79-3.54-4.18-8.22-4.18-14.04s1.39-10.48,4.18-13.99c2.79-3.51,6.51-5.27,11.18-5.27,2.12,0,4.16,.47,6.13,1.41,1.97,.94,3.62,2.25,4.95,3.95,1.21,1.51,2.12,3.28,2.73,5.31,.6,2.03,.91,4.28,.91,6.77v3.91Zm-15.72,22.53c3.46,0,6.56-.83,9.31-2.5,2.76-1.66,4.86-3.95,6.31-6.86v8.45h6v-65.23h-6v26.26c-1.46-2.91-3.56-5.19-6.31-6.86-2.76-1.66-5.86-2.5-9.31-2.5-3.15,0-6.04,.65-8.68,1.95-2.63,1.3-4.86,3.23-6.68,5.77-1.64,2.18-2.88,4.72-3.72,7.63-.85,2.91-1.27,6-1.27,9.26s.42,6.36,1.27,9.27c.84,2.91,2.09,5.45,3.72,7.63,1.82,2.54,4.04,4.46,6.68,5.77,2.64,1.3,5.53,1.95,8.68,1.95m-52.78-43.97c4.06,0,7.27,1.36,9.63,4.09,2.36,2.73,3.6,6.39,3.72,10.99h-28.53c.67-4.66,2.36-8.34,5.09-11.04,2.73-2.69,6.08-4.04,10.08-4.04m.27,43.97c4.67,0,8.65-1.21,11.95-3.63s5.59-5.81,6.86-10.17l-5.45-1.73c-.73,3.21-2.27,5.73-4.64,7.54-2.36,1.82-5.27,2.73-8.72,2.73-4.66,0-8.43-1.72-11.31-5.17-2.88-3.46-4.35-8.03-4.41-13.72h34.89v-2c0-7.02-1.73-12.63-5.18-16.81-3.45-4.18-8.21-6.27-14.26-6.27-3.21,0-6.16,.63-8.86,1.91-2.69,1.27-5.01,3.15-6.95,5.63-1.76,2.18-3.09,4.72-4,7.63-.91,2.91-1.36,6.06-1.36,9.45,0,7.33,1.97,13.27,5.9,17.81,3.94,4.54,9.12,6.81,15.53,6.81m-43.88-24.25c0,2.36-.31,4.54-.91,6.54-.6,2-1.51,3.75-2.73,5.27-1.33,1.69-2.95,3-4.86,3.91-1.91,.91-3.92,1.36-6.04,1.36-4.66,0-8.39-1.68-11.17-5.04-2.79-3.36-4.18-7.8-4.18-13.31s1.39-10.02,4.18-13.35c2.79-3.33,6.51-5,11.17-5,2.12,0,4.14,.47,6.04,1.41,1.91,.94,3.53,2.25,4.86,3.95,1.21,1.51,2.12,3.27,2.73,5.27,.6,2,.91,4.21,.91,6.63v2.37Zm5.9-24.08h-6v8.63c-1.33-2.91-3.38-5.22-6.13-6.95-2.76-1.72-5.8-2.59-9.13-2.59-3.15,0-6.03,.62-8.63,1.86-2.6,1.24-4.84,3.01-6.72,5.32-1.69,2.18-3,4.68-3.91,7.49-.91,2.81-1.36,5.83-1.36,9.04s.45,6.15,1.36,8.99c.91,2.85,2.21,5.33,3.91,7.45,1.88,2.3,4.12,4.07,6.72,5.32,2.61,1.24,5.48,1.86,8.63,1.86,3.39,0,6.45-.85,9.17-2.55,2.73-1.69,4.75-4,6.09-6.9v6.9c0,5.15-1.3,9.05-3.91,11.72-2.61,2.66-6.36,4-11.27,4-3.63,0-6.71-.91-9.22-2.73-2.51-1.82-4.17-4.36-4.95-7.63l-5.72,2.27c1.15,4.12,3.5,7.34,7.04,9.68,3.54,2.33,7.83,3.5,12.85,3.5,6.54,0,11.71-1.88,15.49-5.63,3.79-3.76,5.68-8.93,5.68-15.54v-43.52Zm-55.15-.45c-3.03,0-5.69,.83-7.99,2.5-2.3,1.67-4.06,3.98-5.27,6.95v-9h-6v47.42h6v-26.62c0-4.36,1.24-8,3.72-10.9,2.48-2.9,5.51-4.36,9.08-4.36,.79,0,1.49,.03,2.09,.09,.61,.06,1.21,.15,1.82,.27v-5.99c-.49-.12-1.03-.21-1.64-.28-.61-.06-1.21-.09-1.82-.09m-59.32,43.79c-2.97,0-5.35-.77-7.13-2.32-1.79-1.54-2.68-3.62-2.68-6.23,0-2.97,1.07-5.28,3.22-6.95,2.15-1.67,6.2-3.1,12.13-4.31l8.54-1.82v9.99c0,3.21-1.36,5.95-4.09,8.22-2.73,2.27-6.05,3.41-9.99,3.41m14.44-2.09c.24,2.55,1.33,4.35,3.27,5.4,1.94,1.06,4.69,1.35,8.27,.86v-5.09c-1.76,.55-3.18,.5-4.27-.14-1.09-.63-1.64-1.74-1.64-3.31v-25.26c0-4.66-1.43-8.27-4.27-10.81-2.85-2.54-6.85-3.81-11.99-3.81-4.48,0-8.36,1.15-11.63,3.45-3.27,2.3-5.48,5.39-6.63,9.27l5.73,1.72c.79-2.97,2.22-5.22,4.32-6.77,2.09-1.54,4.77-2.32,8.04-2.32s5.98,.8,7.77,2.41c1.78,1.61,2.68,3.98,2.68,7.13v2.91l-10.27,2.09c-7.02,1.4-12.07,3.36-15.13,5.9-3.06,2.55-4.59,5.88-4.59,9.99s1.42,7.32,4.27,9.77c2.85,2.45,6.51,3.68,10.99,3.68,3.09,0,6-.65,8.72-1.95,2.73-1.3,4.85-3.01,6.36-5.13m-76.31,6.18v-28.71c0-1.94,.34-3.74,1-5.4s1.64-3.16,2.91-4.5c1.27-1.27,2.76-2.27,4.45-3,1.7-.73,3.42-1.09,5.18-1.09,3.57,0,6.31,1.12,8.22,3.36,1.91,2.24,2.86,5.42,2.86,9.54v29.8h6v-31.16c0-5.33-1.38-9.52-4.14-12.58-2.76-3.06-6.59-4.59-11.49-4.59-3.21,0-6.12,.76-8.72,2.27-2.61,1.51-4.7,3.6-6.27,6.27v-25.44h-5.99v65.23h5.99Zm-61.87-51.6c2.06-2.85,4.56-5.04,7.49-6.59,2.94-1.54,6.13-2.32,9.59-2.32,4.42,0,8.22,1.21,11.4,3.63,3.18,2.42,5.47,5.82,6.86,10.18l6.08-1.91c-1.94-5.57-5.03-9.89-9.26-12.94-4.24-3.06-9.27-4.59-15.08-4.59-4.3,0-8.3,.89-11.99,2.68-3.7,1.78-6.87,4.35-9.54,7.68-2.36,3.03-4.16,6.51-5.4,10.45-1.24,3.94-1.86,8.18-1.86,12.72s.62,8.78,1.86,12.72c1.24,3.94,3.04,7.42,5.4,10.45,2.67,3.33,5.84,5.89,9.54,7.68,3.7,1.78,7.69,2.68,11.99,2.68,5.81,0,10.84-1.53,15.08-4.59,4.24-3.06,7.33-7.38,9.26-12.95l-6.08-1.91c-1.4,4.36-3.68,7.75-6.86,10.18-3.18,2.42-6.98,3.63-11.4,3.63-3.45,0-6.65-.77-9.59-2.32-2.94-1.54-5.43-3.74-7.49-6.59-1.76-2.48-3.1-5.35-4.04-8.58-.94-3.24-1.41-6.71-1.41-10.4s.47-7.16,1.41-10.4c.94-3.24,2.29-6.1,4.04-8.58"/><path class="uuid-917e5b5a-08d6-4388-8787-8462a7b4140b" d="M145.4,346.02l79.92,71.87c4.82,5.19,9.67,10.34,14.35,15.65,30.09,33.18,58.85,67.6,84.35,104.34,11.79-8.02,22.53-17.47,31.99-28.08-34.48-32.39-67.58-66.25-92.69-106.6-32.36-48.26-47.13-101.68-18.26-155.91-19.21,54.98,.32,100.64,37.72,141.43,27.94,32.61,63.95,57.63,99.9,81.27,11-22.74,17.17-48.25,17.17-75.2,0-95.5-77.42-172.92-172.92-172.92-59.1,0-111.25,29.66-142.43,74.89,33.79,25.76,60.81,49.17,60.91,49.25"/><path class="uuid-917e5b5a-08d6-4388-8787-8462a7b4140b" d="M259.93,499.83c-28.76-28.27-59.87-53.95-93.03-76.78-34.59-23.88-70.91-46.41-109.23-63.82-1.66,7.95-2.76,16.11-3.28,24.41,42.11,22.83,82.35,48.5,120.24,78.17,14.29,11.39,33.14,27.57,47.29,39.13,21.35,17.7,42.63,36.53,61.66,57.22,7.93-2.75,15.6-6.06,22.96-9.89-14.92-16.76-30.63-32.83-46.6-48.45"/><path class="uuid-917e5b5a-08d6-4388-8787-8462a7b4140b" d="M176.15,513.03c-8.11-5.01-17.16-9.96-25.6-14.32-26.65-13.67-54.44-25.68-82.78-36.19,26.35,61.84,87.68,105.2,159.15,105.2,9.94,0,19.68-.89,29.16-2.5-25.33-19.11-52.96-35.73-79.92-52.19"/></svg>